<svg width="544" height="260" viewBox="0 0 544 260" fill="none" xmlns="http://www.w3.org/2000/svg">
<path d="M239.055 116.117L247.279 136.205H247.605L255.829 116.117H261.969V143.839H257.151V124.796H256.894L249.148 143.839H245.687L237.987 124.753H237.729V143.839H232.914V116.117H239.055Z" fill="url(#paint0_radial_91_159)"/>
<path d="M311.671 116.16H316.774L329.38 136.515H329.457V116.16H334.057V143.788H328.954L316.387 123.472H316.271V143.788H311.671V116.16Z" fill="url(#paint1_radial_91_159)"/>
<path d="M408.364 143.806L398.575 129.501L407.956 116.111L402.196 116.138L395.736 125.355L389.408 116.114L383.651 116.111L392.818 129.519L382.783 143.84L388.552 143.806L395.656 133.668L402.542 143.741L408.364 143.806Z" fill="url(#paint2_radial_91_159)"/>
<path d="M300.187 138.477C299.874 137.937 299.767 137.344 299.739 137.145V131.954H299.743V116.169H294.928V119.612C292.485 117.441 289.269 116.12 285.743 116.12C278.096 116.12 271.897 122.324 271.897 129.977C271.897 137.63 278.096 143.833 285.743 143.833C289.548 143.833 292.994 142.295 295.498 139.807C296.398 142.028 298.389 144.19 301.829 144.19V139.374C301.034 139.374 300.559 139.113 300.187 138.477ZM285.743 139.009C280.765 139.009 276.715 134.955 276.715 129.974C276.715 124.992 280.765 120.939 285.743 120.939C290.72 120.939 294.771 124.992 294.771 129.974C294.771 134.955 290.72 139.009 285.743 139.009Z" fill="url(#paint3_radial_91_159)"/>
<path d="M372.137 138.477C371.824 137.937 371.717 137.344 371.689 137.145V131.954H371.692V116.169H366.877V119.612C364.435 117.441 361.219 116.12 357.693 116.12C350.045 116.12 343.846 122.324 343.846 129.977C343.846 137.63 350.045 143.833 357.693 143.833C361.498 143.833 364.944 142.295 367.448 139.807C368.347 142.028 370.339 144.19 373.779 144.19V139.374C372.981 139.374 372.505 139.113 372.137 138.477ZM357.693 139.009C352.715 139.009 348.664 134.955 348.664 129.974C348.664 124.992 352.715 120.939 357.693 120.939C362.67 120.939 366.721 124.992 366.721 129.974C366.721 134.955 362.67 139.009 357.693 139.009Z" fill="url(#paint4_radial_91_159)"/>
<path d="M203.372 138.047C203.88 138.711 204.363 139.39 204.821 140.081C210.624 138.406 215.754 134.93 219.845 130.447C209.905 118.849 191.942 116.068 179.166 124.438C178.863 124.634 178.565 124.837 178.269 125.048V125.049C178.262 125.054 178.255 125.059 178.248 125.065C178.249 125.06 178.249 125.057 178.25 125.052L178.251 125.052C178.628 123.104 179.231 121.227 180.03 119.451C180.03 119.451 180.03 119.451 180.031 119.45C183.918 110.806 192.448 104.517 202.077 103.756C201.706 108.038 200.302 112.176 197.985 115.794C198.833 115.848 199.685 115.931 200.537 116.045C201.365 116.156 202.186 116.294 202.998 116.458C205.918 111.168 207.09 105.079 206.815 99.0138C191.591 97.8472 176.924 108.592 173.804 123.552C173.73 123.904 173.662 124.259 173.602 124.618L173.603 124.619C173.602 124.622 173.602 124.625 173.601 124.628C173.601 124.627 173.6 124.627 173.6 124.626V124.624C172.49 122.981 171.591 121.227 170.9 119.406C170.9 119.406 170.9 119.406 170.9 119.404C167.541 110.541 169.129 100.058 175.4 92.7065C178.163 95.9965 180.095 99.9161 181.013 104.114C181.651 103.552 182.312 103.008 182.994 102.486C183.658 101.978 184.336 101.495 185.027 101.036C183.353 95.2282 179.88 90.0946 175.4 86C163.811 95.9486 161.032 113.925 169.396 126.711C169.592 127.013 169.795 127.312 170.005 127.608H170.007C170.013 127.616 170.019 127.625 170.025 127.633C168.092 127.242 166.22 126.629 164.441 125.819C155.862 121.911 149.453 113.468 148.733 103.757C153.006 104.126 157.136 105.542 160.733 107.833C160.833 106.14 161.052 104.469 161.387 102.825C156.121 99.9845 150.056 98.6899 143.994 99.0138C142.988 114.806 153.572 128.687 168.369 132.017C168.782 132.11 169.199 132.192 169.619 132.268C167.978 133.357 166.225 134.247 164.398 134.931C155.57 138.238 145.072 136.804 137.702 130.447C140.984 127.684 144.905 125.762 149.068 124.837C147.942 123.57 146.916 122.233 145.992 120.833C140.261 122.551 135.057 125.928 131 130.447C141.447 142.325 158.739 144.65 171.554 136.535C171.902 136.315 172.245 136.084 172.586 135.848C172.195 137.778 171.584 139.647 170.776 141.422C166.871 150.008 158.434 156.423 148.731 157.142C149.1 152.867 150.514 148.733 152.804 145.133C151.113 145.033 149.442 144.815 147.8 144.478C144.961 149.748 143.668 155.819 143.992 161.885C159.772 162.892 173.642 152.299 176.97 137.492C177.061 137.084 177.142 136.673 177.217 136.26C178.307 137.903 179.197 139.66 179.881 141.49C183.186 150.324 181.753 160.83 175.4 168.205C172.64 164.922 170.719 160.998 169.795 156.832C168.529 157.958 167.193 158.985 165.794 159.91C167.51 165.645 170.885 170.853 175.4 174.913C187.27 164.458 189.593 147.153 181.484 134.328C181.265 133.981 181.035 133.64 180.801 133.3C182.747 133.677 184.621 134.28 186.396 135.08C186.396 135.08 186.396 135.08 186.397 135.081C195.034 138.97 201.318 147.507 202.079 157.143C197.8 156.772 193.665 155.368 190.05 153.048C189.996 153.898 189.913 154.75 189.799 155.602C189.688 156.431 189.55 157.253 189.386 158.065C194.673 160.988 200.756 162.16 206.817 161.885C207.983 146.649 197.246 131.972 182.298 128.849C181.949 128.776 181.598 128.708 181.244 128.649C181.246 128.647 181.247 128.646 181.249 128.645H181.251C182.893 127.534 184.645 126.634 186.466 125.943C186.466 125.943 186.466 125.943 186.467 125.943C195.323 122.581 205.798 124.171 213.144 130.447C209.856 133.212 205.94 135.145 201.745 136.064C202.307 136.702 202.85 137.364 203.372 138.047Z" fill="url(#paint5_linear_91_159)"/>
<defs>
<radialGradient id="paint0_radial_91_159" cx="0" cy="0" r="1" gradientUnits="userSpaceOnUse" gradientTransform="translate(402.864 143.913) rotate(180) scale(155.317 190.074)">
<stop offset="0.0851705" stop-color="#1ECA59"/>
<stop offset="0.486065" stop-color="#3FAEBD"/>
<stop offset="0.721045" stop-color="#59BE88"/>
<stop offset="1" stop-color="#ADD832"/>
</radialGradient>
<radialGradient id="paint1_radial_91_159" cx="0" cy="0" r="1" gradientUnits="userSpaceOnUse" gradientTransform="translate(402.864 143.913) rotate(180) scale(155.317 190.074)">
<stop offset="0.0851705" stop-color="#1ECA59"/>
<stop offset="0.486065" stop-color="#3FAEBD"/>
<stop offset="0.721045" stop-color="#59BE88"/>
<stop offset="1" stop-color="#ADD832"/>
</radialGradient>
<radialGradient id="paint2_radial_91_159" cx="0" cy="0" r="1" gradientUnits="userSpaceOnUse" gradientTransform="translate(402.864 143.913) rotate(180) scale(155.317 190.074)">
<stop offset="0.0851705" stop-color="#1ECA59"/>
<stop offset="0.486065" stop-color="#3FAEBD"/>
<stop offset="0.721045" stop-color="#59BE88"/>
<stop offset="1" stop-color="#ADD832"/>
</radialGradient>
<radialGradient id="paint3_radial_91_159" cx="0" cy="0" r="1" gradientUnits="userSpaceOnUse" gradientTransform="translate(402.864 143.913) rotate(180) scale(155.317 190.074)">
<stop offset="0.0851705" stop-color="#1ECA59"/>
<stop offset="0.486065" stop-color="#3FAEBD"/>
<stop offset="0.721045" stop-color="#59BE88"/>
<stop offset="1" stop-color="#ADD832"/>
</radialGradient>
<radialGradient id="paint4_radial_91_159" cx="0" cy="0" r="1" gradientUnits="userSpaceOnUse" gradientTransform="translate(402.864 143.913) rotate(180) scale(155.317 190.074)">
<stop offset="0.0851705" stop-color="#1ECA59"/>
<stop offset="0.486065" stop-color="#3FAEBD"/>
<stop offset="0.721045" stop-color="#59BE88"/>
<stop offset="1" stop-color="#ADD832"/>
</radialGradient>
<linearGradient id="paint5_linear_91_159" x1="188.634" y1="166.228" x2="160.07" y2="100.174" gradientUnits="userSpaceOnUse">
<stop offset="0.0541221" stop-color="#39AACF"/>
<stop offset="1" stop-color="#1ECA59"/>
</linearGradient>
</defs>
</svg>
