<svg width="161" height="52" viewBox="0 0 161 52" fill="none" xmlns="http://www.w3.org/2000/svg">
<path d="M62.6327 18.3821L67.4109 29.9684H67.5999L72.3782 18.3821H75.9458V34.3719H73.1466V23.3879H72.9968L68.4967 34.3719H66.4856L62.0123 23.3631H61.8625V34.3719H59.0651V18.3821H62.6327Z" fill="url(#paint0_radial_91_386)"/>
<path d="M104.822 18.4071H107.787L115.111 30.1475H115.156V18.4071H117.828V34.342H114.863L107.562 22.6246H107.495V34.342H104.822V18.4071Z" fill="url(#paint1_radial_91_386)"/>
<path d="M161 34.3525L155.312 26.1017L160.763 18.3787L157.416 18.3946L153.663 23.7104L149.987 18.3804L146.642 18.3787L151.968 26.1123L146.138 34.372L149.489 34.3525L153.617 28.5054L157.618 34.3153L161 34.3525Z" fill="url(#paint2_radial_91_386)"/>
<path d="M98.1503 31.2792C97.9684 30.9675 97.906 30.6256 97.89 30.5105V27.5169H97.8918V18.4123H95.0944V20.3979C93.6752 19.1456 91.8067 18.3839 89.7581 18.3839C85.315 18.3839 81.7135 21.962 81.7135 26.3762C81.7135 30.7904 85.315 34.3685 89.7581 34.3685C91.9689 34.3685 93.9711 33.481 95.426 32.0462C95.9484 33.3269 97.1055 34.5739 99.1041 34.5739V31.7965C98.6424 31.7965 98.366 31.6459 98.1503 31.2792ZM89.7581 31.5857C86.8662 31.5857 84.5127 29.2475 84.5127 26.3744C84.5127 23.5013 86.8662 21.1632 89.7581 21.1632C92.65 21.1632 95.0034 23.5013 95.0034 26.3744C95.0034 29.2475 92.65 31.5857 89.7581 31.5857Z" fill="url(#paint3_radial_91_386)"/>
<path d="M139.953 31.2792C139.771 30.9675 139.708 30.6256 139.692 30.5105V27.5169H139.694V18.4123H136.897V20.3979C135.477 19.1456 133.609 18.3839 131.56 18.3839C127.117 18.3839 123.516 21.962 123.516 26.3762C123.516 30.7904 127.117 34.3685 131.56 34.3685C133.771 34.3685 135.773 33.481 137.228 32.0462C137.751 33.3269 138.908 34.5739 140.906 34.5739V31.7965C140.443 31.7965 140.167 31.6459 139.953 31.2792ZM131.56 31.5857C128.668 31.5857 126.315 29.2475 126.315 26.3744C126.315 23.5013 128.668 21.1632 131.56 21.1632C134.452 21.1632 136.806 23.5013 136.806 26.3744C136.806 29.2475 134.452 31.5857 131.56 31.5857Z" fill="url(#paint4_radial_91_386)"/>
<path d="M41.9054 30.3915C42.1994 30.7759 42.4792 31.1685 42.7444 31.5683C46.1045 30.5993 49.075 28.5881 51.4438 25.9942C45.688 19.2837 35.2872 17.6748 27.8893 22.5176C27.7143 22.6312 27.5414 22.7486 27.3702 22.8705V22.8713C27.3661 22.8743 27.3618 22.8773 27.3578 22.8802C27.3583 22.8778 27.3586 22.8756 27.3591 22.8732L27.3597 22.8727C27.5778 21.7456 27.927 20.6601 28.3895 19.6321C28.3895 19.6321 28.3895 19.6321 28.3903 19.6316C30.6409 14.6305 35.5799 10.992 41.1553 10.5515C40.9404 13.0288 40.1279 15.4234 38.7863 17.5167C39.2773 17.5477 39.7703 17.5959 40.2636 17.6618C40.7434 17.7256 41.2186 17.8056 41.6889 17.9006C43.3798 14.8397 44.058 11.3169 43.8989 7.80769C35.0837 7.1327 26.5915 13.3494 24.7847 22.0049C24.7416 22.209 24.7023 22.4144 24.6675 22.6218L24.6681 22.6223C24.6678 22.6239 24.6675 22.6258 24.6673 22.6274C24.667 22.6271 24.6667 22.6269 24.6665 22.6263V22.6255C24.0238 21.6746 23.5031 20.6601 23.1033 19.606C23.1033 19.606 23.1033 19.606 23.1033 19.6049C21.1583 14.4773 22.078 8.41213 25.709 4.15842C27.3088 6.06194 28.4275 8.32974 28.959 10.7585C29.3281 10.4333 29.711 10.1186 30.1062 9.81675C30.4907 9.52274 30.8832 9.243 31.2831 8.97779C30.3141 5.61742 28.3028 2.64717 25.709 0.278137C18.9984 6.0342 17.3894 16.4349 22.2323 23.8328C22.3459 24.0075 22.4633 24.1806 22.5852 24.3519H22.5861C22.5896 24.3567 22.5931 24.3616 22.5966 24.3664C21.477 24.14 20.3931 23.7854 19.3635 23.3169C14.396 21.0556 10.6845 16.1705 10.268 10.552C12.7418 10.7655 15.1337 11.5846 17.2163 12.9103C17.2739 11.9311 17.4007 10.964 17.5951 10.0128C14.546 8.36932 11.0337 7.62029 7.52393 7.80769C6.94129 16.9449 13.07 24.9762 21.6375 26.9029C21.8769 26.9568 22.1184 27.0042 22.3615 27.0483C21.4114 27.6783 20.396 28.1929 19.3385 28.5889C14.2269 30.5024 8.1483 29.6726 3.88083 25.9942C5.78113 24.396 8.05137 23.2838 10.4616 22.7486C9.81005 22.0154 9.21557 21.2419 8.68059 20.4318C5.36247 21.4258 2.34912 23.3797 0 25.9942C6.04903 32.8668 16.0615 34.2122 23.4821 29.5167C23.6835 29.3894 23.8822 29.2558 24.0795 29.1196C23.8531 30.2361 23.499 31.3174 23.0316 32.3445C20.7703 37.312 15.8852 41.0234 10.2667 41.4397C10.4802 38.9662 11.2992 36.5743 12.625 34.4917C11.6457 34.4338 10.6786 34.3073 9.72739 34.1126C8.08395 37.1617 7.33492 40.6742 7.52258 44.184C16.6595 44.7664 24.691 38.6377 26.6177 30.0705C26.6707 29.8347 26.7175 29.5967 26.7612 29.3576C27.392 30.3085 27.9073 31.3249 28.3036 32.3836C30.2171 37.4951 29.3873 43.5737 25.709 47.8408C24.1108 45.9408 22.9985 43.6706 22.4633 41.2604C21.7301 41.9119 20.9566 42.5061 20.1465 43.0414C21.1405 46.3595 23.0944 49.3728 25.709 51.7219C32.5816 45.6729 33.927 35.6602 29.2314 28.24C29.1046 28.0394 28.9719 27.8418 28.8362 27.6452C29.9627 27.8633 31.048 28.2122 32.0757 28.6748C32.0757 28.6748 32.0757 28.6748 32.0765 28.6756C37.0777 30.9259 40.7162 35.8651 41.1566 41.4402C38.6791 41.2254 36.2847 40.4131 34.1914 39.0712C34.1602 39.5625 34.112 40.0555 34.0463 40.5488C33.9822 41.0283 33.9022 41.5038 33.8072 41.9739C36.8685 43.6649 40.3909 44.3432 43.9002 44.184C44.5752 35.3689 38.3584 26.8768 29.7029 25.0699C29.501 25.0274 29.2977 24.9884 29.0925 24.9539C29.0936 24.9531 29.0947 24.9526 29.0955 24.9518H29.0966C30.0475 24.3091 31.062 23.7884 32.1161 23.3885C32.1161 23.3885 32.1161 23.3885 32.1169 23.3885C37.2446 21.4436 43.31 22.3633 47.5638 25.9942C45.66 27.5941 43.3924 28.7125 40.9633 29.2442C41.2888 29.6134 41.6033 29.9962 41.9054 30.3915Z" fill="url(#paint5_linear_91_386)"/>
<defs>
<radialGradient id="paint0_radial_91_386" cx="0" cy="0" r="1" gradientUnits="userSpaceOnUse" gradientTransform="translate(157.805 34.4142) rotate(180) scale(90.2382 109.631)">
<stop offset="0.0851705" stop-color="#1ECA59"/>
<stop offset="0.486065" stop-color="#3FAEBD"/>
<stop offset="0.721045" stop-color="#59BE88"/>
<stop offset="1" stop-color="#ADD832"/>
</radialGradient>
<radialGradient id="paint1_radial_91_386" cx="0" cy="0" r="1" gradientUnits="userSpaceOnUse" gradientTransform="translate(157.805 34.4142) rotate(180) scale(90.2382 109.631)">
<stop offset="0.0851705" stop-color="#1ECA59"/>
<stop offset="0.486065" stop-color="#3FAEBD"/>
<stop offset="0.721045" stop-color="#59BE88"/>
<stop offset="1" stop-color="#ADD832"/>
</radialGradient>
<radialGradient id="paint2_radial_91_386" cx="0" cy="0" r="1" gradientUnits="userSpaceOnUse" gradientTransform="translate(157.805 34.4142) rotate(180) scale(90.2382 109.631)">
<stop offset="0.0851705" stop-color="#1ECA59"/>
<stop offset="0.486065" stop-color="#3FAEBD"/>
<stop offset="0.721045" stop-color="#59BE88"/>
<stop offset="1" stop-color="#ADD832"/>
</radialGradient>
<radialGradient id="paint3_radial_91_386" cx="0" cy="0" r="1" gradientUnits="userSpaceOnUse" gradientTransform="translate(157.805 34.4142) rotate(180) scale(90.2382 109.631)">
<stop offset="0.0851705" stop-color="#1ECA59"/>
<stop offset="0.486065" stop-color="#3FAEBD"/>
<stop offset="0.721045" stop-color="#59BE88"/>
<stop offset="1" stop-color="#ADD832"/>
</radialGradient>
<radialGradient id="paint4_radial_91_386" cx="0" cy="0" r="1" gradientUnits="userSpaceOnUse" gradientTransform="translate(157.805 34.4142) rotate(180) scale(90.2382 109.631)">
<stop offset="0.0851705" stop-color="#1ECA59"/>
<stop offset="0.486065" stop-color="#3FAEBD"/>
<stop offset="0.721045" stop-color="#59BE88"/>
<stop offset="1" stop-color="#ADD832"/>
</radialGradient>
<linearGradient id="paint5_linear_91_386" x1="33.3715" y1="46.6968" x2="16.8535" y2="8.46963" gradientUnits="userSpaceOnUse">
<stop offset="0.0541221" stop-color="#39AACF"/>
<stop offset="1" stop-color="#1ECA59"/>
</linearGradient>
</defs>
</svg>
