<svg width="324" height="106" viewBox="0 0 324 106" fill="none" xmlns="http://www.w3.org/2000/svg">
<path d="M122 103H271C298.614 103 321 80.6142 321 53V53C321 25.3858 298.614 3 271 3H53C25.3858 3 3 25.3858 3 53V53C3 80.6142 25.3945 103 53.0087 103C53.3427 103 53.6732 103 54 103" stroke="url(#paint0_linear_61_144)" stroke-width="6" stroke-linecap="round" stroke-linejoin="round"/>
<path d="M68.3098 105.2V93.54H96.9298C98.9085 93.54 99.8978 92.48 99.8978 90.36V77.11H97.9898C97.4245 78.3113 96.5412 79.5127 95.3398 80.714C94.1385 81.9153 92.5132 82.9047 90.4638 83.682C88.4145 84.4593 85.7998 84.848 82.6198 84.848C78.5212 84.848 74.9172 83.9293 71.8078 82.092C68.7692 80.184 66.4018 77.5693 64.7058 74.248C63.0098 70.9267 62.1618 67.1107 62.1618 62.8V31.424H75.5178V61.74C75.5178 65.6973 76.4718 68.6653 78.3798 70.644C80.3585 72.6227 83.1498 73.612 86.7538 73.612C90.8525 73.612 94.0325 72.2693 96.2938 69.584C98.5552 66.828 99.6858 63.012 99.6858 58.136V31.424H113.042V93.328C113.042 96.932 111.982 99.794 109.862 101.914C107.742 104.105 104.915 105.2 101.382 105.2H68.3098ZM147.62 85.484C142.391 85.484 137.692 84.424 133.522 82.304C129.353 80.184 126.067 77.11 123.664 73.082C121.262 69.054 120.06 64.2133 120.06 58.56V56.864C120.06 51.2107 121.262 46.37 123.664 42.342C126.067 38.314 129.353 35.24 133.522 33.12C137.692 31 142.391 29.94 147.62 29.94C152.85 29.94 157.549 31 161.718 33.12C165.888 35.24 169.174 38.314 171.576 42.342C173.979 46.37 175.18 51.2107 175.18 56.864V58.56C175.18 64.2133 173.979 69.054 171.576 73.082C169.174 77.11 165.888 80.184 161.718 82.304C157.549 84.424 152.85 85.484 147.62 85.484ZM147.62 73.612C151.719 73.612 155.111 72.3047 157.796 69.69C160.482 67.0047 161.824 63.1887 161.824 58.242V57.182C161.824 52.2353 160.482 48.4547 157.796 45.84C155.182 43.1547 151.79 41.812 147.62 41.812C143.522 41.812 140.13 43.1547 137.444 45.84C134.759 48.4547 133.416 52.2353 133.416 57.182V58.242C133.416 63.1887 134.759 67.0047 137.444 69.69C140.13 72.3047 143.522 73.612 147.62 73.612ZM202.242 84.848C198.144 84.848 194.54 83.9293 191.43 82.092C188.392 80.184 186.024 77.5693 184.328 74.248C182.632 70.9267 181.784 67.1107 181.784 62.8V31.424H195.14V61.74C195.14 65.6973 196.094 68.6653 198.002 70.644C199.981 72.6227 202.772 73.612 206.376 73.612C210.475 73.612 213.655 72.2693 215.916 69.584C218.178 66.828 219.308 63.012 219.308 58.136V31.424H232.664V84H219.52V77.11H217.612C216.764 78.8767 215.174 80.608 212.842 82.304C210.51 84 206.977 84.848 202.242 84.848ZM242.227 84V31.424H255.371V37.36H257.279C258.056 35.24 259.328 33.6853 261.095 32.696C262.932 31.7067 265.052 31.212 267.455 31.212H273.815V43.084H267.243C263.851 43.084 261.06 44.0027 258.869 45.84C256.678 47.6067 255.583 50.3627 255.583 54.108V84H242.227Z" fill="url(#paint1_linear_61_144)"/>
<defs>
<linearGradient id="paint0_linear_61_144" x1="30" y1="67" x2="191.329" y2="-41.6726" gradientUnits="userSpaceOnUse">
<stop stop-color="#49D2FF" stop-opacity="0.75"/>
<stop offset="1" stop-color="#5BFF93"/>
</linearGradient>
<linearGradient id="paint1_linear_61_144" x1="55" y1="47.2486" x2="277" y2="47.2486" gradientUnits="userSpaceOnUse">
<stop stop-color="#4BFFD4"/>
<stop offset="0.33" stop-color="#2CFF74"/>
<stop offset="0.66" stop-color="#4DFF67"/>
<stop offset="1" stop-color="#91FF4A"/>
</linearGradient>
</defs>
</svg>
