<svg width="161" height="52" fill="none" xmlns="http://www.w3.org/2000/svg"><path d="M62.633 18.382l4.778 11.586h.189l4.778-11.586h3.568v15.99h-2.8V23.388h-.15l-4.5 10.984h-2.01l-4.474-11.009h-.15v11.009h-2.797v-15.99h3.568z" fill="url(#paint0_radial_91_386)"/><path d="M104.822 18.407h2.965l7.324 11.74h.045v-11.74h2.672v15.935h-2.965l-7.301-11.717h-.067v11.717h-2.673V18.407z" fill="url(#paint1_radial_91_386)"/><path d="M161 34.352l-5.688-8.25 5.451-7.723-3.347.016-3.753 5.315-3.676-5.33-3.345-.001 5.326 7.733-5.83 8.26 3.351-.02 4.128-5.847 4.001 5.81 3.382.038z" fill="url(#paint2_radial_91_386)"/><path d="M98.15 31.28a2.239 2.239 0 01-.26-.77v-2.993h.002v-9.105h-2.798v1.986a8.038 8.038 0 00-5.336-2.014c-4.443 0-8.044 3.578-8.044 7.992s3.601 7.992 8.044 7.992c2.21 0 4.213-.887 5.668-2.322.522 1.28 1.68 2.528 3.678 2.528v-2.777c-.462 0-.738-.151-.954-.518zm-8.392.306c-2.892 0-5.245-2.338-5.245-5.212 0-2.873 2.353-5.21 5.245-5.21s5.245 2.337 5.245 5.21c0 2.873-2.353 5.212-5.245 5.212z" fill="url(#paint3_radial_91_386)"/><path d="M139.953 31.28a2.242 2.242 0 01-.261-.77v-2.993h.002v-9.105h-2.797v1.986a8.041 8.041 0 00-5.337-2.014c-4.443 0-8.044 3.578-8.044 7.992s3.601 7.992 8.044 7.992a8.047 8.047 0 005.668-2.322c.523 1.28 1.68 2.528 3.678 2.528v-2.777c-.463 0-.739-.151-.953-.518zm-8.393.306c-2.892 0-5.245-2.338-5.245-5.212 0-2.873 2.353-5.21 5.245-5.21s5.246 2.337 5.246 5.21c0 2.873-2.354 5.212-5.246 5.212z" fill="url(#paint4_radial_91_386)"/><path d="M41.905 30.392c.294.384.574.777.84 1.176 3.36-.969 6.33-2.98 8.699-5.574-5.756-6.71-16.157-8.32-23.555-3.476-.175.113-.348.23-.519.352v.001l-.012.01.001-.008a14.707 14.707 0 011.03-3.24l.001-.001c2.25-5.002 7.19-8.64 12.765-9.08a15.38 15.38 0 01-2.369 6.965 21.29 21.29 0 012.903.384c1.69-3.061 2.369-6.584 2.21-10.093-8.815-.675-17.308 5.541-19.114 14.197-.043.204-.083.41-.117.617a.09.09 0 000 .005h-.002v-.002a14.693 14.693 0 01-1.563-3.019v-.001c-1.945-5.128-1.025-11.193 2.606-15.447a15.378 15.378 0 013.25 6.6 21.224 21.224 0 012.324-1.78c-.969-3.36-2.98-6.33-5.574-8.7-6.71 5.756-8.32 16.157-3.477 23.555.114.175.231.348.353.519h.001l.01.014a14.973 14.973 0 01-3.233-1.05c-4.967-2.26-8.678-7.145-9.095-12.764a15.444 15.444 0 016.948 2.358c.058-.979.185-1.946.38-2.897-3.05-1.644-6.562-2.393-10.072-2.205-.583 9.137 5.546 17.168 14.113 19.095.24.054.481.101.724.145-.95.63-1.965 1.145-3.023 1.54-5.111 1.914-11.19 1.085-15.457-2.594a15.44 15.44 0 016.58-3.245 20.462 20.462 0 01-1.78-2.317C5.362 21.426 2.349 23.38 0 25.994c6.049 6.873 16.061 8.218 23.482 3.523.201-.128.4-.261.598-.397a14.971 14.971 0 01-1.048 3.224c-2.262 4.968-7.147 8.68-12.765 9.096a15.443 15.443 0 012.358-6.948 20.463 20.463 0 01-2.898-.38c-1.643 3.05-2.392 6.562-2.204 10.072 9.137.582 17.168-5.546 19.095-14.113.053-.236.1-.474.143-.713a14.96 14.96 0 011.543 3.026c1.913 5.111 1.083 11.19-2.595 15.457a15.442 15.442 0 01-3.246-6.58 20.505 20.505 0 01-2.317 1.78c.994 3.319 2.948 6.332 5.563 8.68 6.873-6.048 8.218-16.06 3.522-23.481-.126-.2-.26-.398-.395-.595 1.127.218 2.212.567 3.24 1.03 5.002 2.25 8.64 7.19 9.08 12.765a15.375 15.375 0 01-6.965-2.369 21.53 21.53 0 01-.384 2.903c3.061 1.69 6.584 2.37 10.093 2.21.675-8.815-5.542-17.307-14.197-19.114a15.184 15.184 0 00-.61-.116l.003-.002a14.699 14.699 0 013.02-1.564c5.129-1.944 11.194-1.025 15.448 2.606a15.38 15.38 0 01-6.6 3.25c.325.37.64.752.941 1.148z" fill="url(#paint5_linear_91_386)"/><defs><radialGradient id="paint0_radial_91_386" cx="0" cy="0" r="1" gradientUnits="userSpaceOnUse" gradientTransform="matrix(-90.2382 0 0 -109.631 157.805 34.414)"><stop offset=".085" stop-color="#1ECA59"/><stop offset=".486" stop-color="#3FAEBD"/><stop offset=".721" stop-color="#59BE88"/><stop offset="1" stop-color="#ADD832"/></radialGradient><radialGradient id="paint1_radial_91_386" cx="0" cy="0" r="1" gradientUnits="userSpaceOnUse" gradientTransform="matrix(-90.2382 0 0 -109.631 157.805 34.414)"><stop offset=".085" stop-color="#1ECA59"/><stop offset=".486" stop-color="#3FAEBD"/><stop offset=".721" stop-color="#59BE88"/><stop offset="1" stop-color="#ADD832"/></radialGradient><radialGradient id="paint2_radial_91_386" cx="0" cy="0" r="1" gradientUnits="userSpaceOnUse" gradientTransform="matrix(-90.2382 0 0 -109.631 157.805 34.414)"><stop offset=".085" stop-color="#1ECA59"/><stop offset=".486" stop-color="#3FAEBD"/><stop offset=".721" stop-color="#59BE88"/><stop offset="1" stop-color="#ADD832"/></radialGradient><radialGradient id="paint3_radial_91_386" cx="0" cy="0" r="1" gradientUnits="userSpaceOnUse" gradientTransform="matrix(-90.2382 0 0 -109.631 157.805 34.414)"><stop offset=".085" stop-color="#1ECA59"/><stop offset=".486" stop-color="#3FAEBD"/><stop offset=".721" stop-color="#59BE88"/><stop offset="1" stop-color="#ADD832"/></radialGradient><radialGradient id="paint4_radial_91_386" cx="0" cy="0" r="1" gradientUnits="userSpaceOnUse" gradientTransform="matrix(-90.2382 0 0 -109.631 157.805 34.414)"><stop offset=".085" stop-color="#1ECA59"/><stop offset=".486" stop-color="#3FAEBD"/><stop offset=".721" stop-color="#59BE88"/><stop offset="1" stop-color="#ADD832"/></radialGradient><linearGradient id="paint5_linear_91_386" x1="33.371" y1="46.697" x2="16.854" y2="8.47" gradientUnits="userSpaceOnUse"><stop offset=".054" stop-color="#39AACF"/><stop offset="1" stop-color="#1ECA59"/></linearGradient></defs></svg>