<svg width="544" height="260" fill="none" xmlns="http://www.w3.org/2000/svg"><path d="M239.055 116.117l8.224 20.088h.326l8.224-20.088h6.14v27.722h-4.818v-19.043h-.257l-7.746 19.043h-3.461l-7.7-19.086h-.258v19.086h-4.815v-27.722h6.141z" fill="url(#paint0_radial_91_159)"/><path d="M311.671 116.16h5.103l12.606 20.355h.077V116.16h4.6v27.628h-5.103l-12.567-20.316h-.116v20.316h-4.6V116.16z" fill="url(#paint1_radial_91_159)"/><path d="M408.364 143.806l-9.789-14.305 9.381-13.39-5.76.027-6.46 9.217-6.328-9.241-5.757-.003 9.167 13.408-10.035 14.321 5.769-.034 7.104-10.138 6.886 10.073 5.822.065z" fill="url(#paint2_radial_91_159)"/><path d="M300.187 138.477a3.912 3.912 0 01-.448-1.332v-5.191h.004v-15.785h-4.815v3.443a13.78 13.78 0 00-9.185-3.492c-7.647 0-13.846 6.204-13.846 13.857s6.199 13.856 13.846 13.856c3.805 0 7.251-1.538 9.755-4.026.9 2.221 2.891 4.383 6.331 4.383v-4.816c-.795 0-1.27-.261-1.642-.897zm-14.444.532c-4.978 0-9.028-4.054-9.028-9.035 0-4.982 4.05-9.035 9.028-9.035 4.977 0 9.028 4.053 9.028 9.035 0 4.981-4.051 9.035-9.028 9.035z" fill="url(#paint3_radial_91_159)"/><path d="M372.137 138.477a3.912 3.912 0 01-.448-1.332v-5.191h.003v-15.785h-4.815v3.443a13.776 13.776 0 00-9.184-3.492c-7.648 0-13.847 6.204-13.847 13.857s6.199 13.856 13.847 13.856c3.805 0 7.251-1.538 9.755-4.026.899 2.221 2.891 4.383 6.331 4.383v-4.816c-.798 0-1.274-.261-1.642-.897zm-14.444.532c-4.978 0-9.029-4.054-9.029-9.035 0-4.982 4.051-9.035 9.029-9.035 4.977 0 9.028 4.053 9.028 9.035 0 4.981-4.051 9.035-9.028 9.035z" fill="url(#paint4_radial_91_159)"/><path d="M203.372 138.047c.508.664.991 1.343 1.449 2.034 5.803-1.675 10.933-5.151 15.024-9.634-9.94-11.598-27.903-14.379-40.679-6.009-.303.196-.601.399-.897.61v.001l-.021.016.002-.013h.001c.377-1.948.98-3.825 1.779-5.601l.001-.001c3.887-8.644 12.417-14.933 22.046-15.694a26.593 26.593 0 01-4.092 12.038 36.961 36.961 0 015.013.664c2.92-5.29 4.092-11.379 3.817-17.444-15.224-1.167-29.891 9.578-33.011 24.538a26.06 26.06 0 00-.202 1.066l.001.001-.002.009-.001-.002v-.002a25.432 25.432 0 01-2.7-5.218v-.002c-3.359-8.863-1.771-19.346 4.5-26.697a26.588 26.588 0 015.613 11.407 37.258 37.258 0 014.014-3.078C183.353 95.228 179.88 90.095 175.4 86c-11.589 9.949-14.368 27.925-6.004 40.711.196.302.399.601.609.897h.002l.018.025a25.842 25.842 0 01-5.584-1.814c-8.579-3.908-14.988-12.351-15.708-22.062a26.66 26.66 0 0112 4.076c.1-1.693.319-3.364.654-5.008-5.266-2.84-11.331-4.135-17.393-3.811-1.006 15.792 9.578 29.673 24.375 33.003.413.093.83.175 1.25.251a25.797 25.797 0 01-5.221 2.663c-8.828 3.307-19.326 1.873-26.696-4.484a26.658 26.658 0 0111.366-5.61 35.275 35.275 0 01-3.076-4.004c-5.731 1.718-10.935 5.095-14.992 9.614 10.447 11.878 27.739 14.203 40.554 6.088.348-.22.691-.451 1.032-.687a25.84 25.84 0 01-1.81 5.574c-3.905 8.586-12.342 15.001-22.045 15.72a26.708 26.708 0 014.073-12.009 35.22 35.22 0 01-5.004-.655c-2.839 5.27-4.132 11.341-3.808 17.407 15.78 1.007 29.65-9.586 32.978-24.393.091-.408.172-.819.247-1.232 1.09 1.643 1.98 3.4 2.664 5.23 3.305 8.834 1.872 19.34-4.481 26.715a26.686 26.686 0 01-5.605-11.373 35.377 35.377 0 01-4.001 3.078c1.716 5.735 5.091 10.943 9.606 15.003 11.87-10.455 14.193-27.76 6.084-40.585a31.025 31.025 0 00-.683-1.028c1.946.377 3.82.98 5.595 1.78l.001.001c8.637 3.889 14.921 12.426 15.682 22.062a26.526 26.526 0 01-12.029-4.095 36.896 36.896 0 01-.664 5.017c5.287 2.923 11.37 4.095 17.431 3.82 1.166-15.236-9.571-29.913-24.519-33.036-.349-.073-.7-.141-1.054-.2l.005-.004h.002a25.343 25.343 0 015.215-2.702h.001c8.856-3.362 19.331-1.772 26.677 4.504a26.557 26.557 0 01-11.399 5.617 36.89 36.89 0 011.627 1.983z" fill="url(#paint5_linear_91_159)"/><defs><radialGradient id="paint0_radial_91_159" cx="0" cy="0" r="1" gradientUnits="userSpaceOnUse" gradientTransform="matrix(-155.317 0 0 -190.074 402.864 143.913)"><stop offset=".085" stop-color="#1ECA59"/><stop offset=".486" stop-color="#3FAEBD"/><stop offset=".721" stop-color="#59BE88"/><stop offset="1" stop-color="#ADD832"/></radialGradient><radialGradient id="paint1_radial_91_159" cx="0" cy="0" r="1" gradientUnits="userSpaceOnUse" gradientTransform="matrix(-155.317 0 0 -190.074 402.864 143.913)"><stop offset=".085" stop-color="#1ECA59"/><stop offset=".486" stop-color="#3FAEBD"/><stop offset=".721" stop-color="#59BE88"/><stop offset="1" stop-color="#ADD832"/></radialGradient><radialGradient id="paint2_radial_91_159" cx="0" cy="0" r="1" gradientUnits="userSpaceOnUse" gradientTransform="matrix(-155.317 0 0 -190.074 402.864 143.913)"><stop offset=".085" stop-color="#1ECA59"/><stop offset=".486" stop-color="#3FAEBD"/><stop offset=".721" stop-color="#59BE88"/><stop offset="1" stop-color="#ADD832"/></radialGradient><radialGradient id="paint3_radial_91_159" cx="0" cy="0" r="1" gradientUnits="userSpaceOnUse" gradientTransform="matrix(-155.317 0 0 -190.074 402.864 143.913)"><stop offset=".085" stop-color="#1ECA59"/><stop offset=".486" stop-color="#3FAEBD"/><stop offset=".721" stop-color="#59BE88"/><stop offset="1" stop-color="#ADD832"/></radialGradient><radialGradient id="paint4_radial_91_159" cx="0" cy="0" r="1" gradientUnits="userSpaceOnUse" gradientTransform="matrix(-155.317 0 0 -190.074 402.864 143.913)"><stop offset=".085" stop-color="#1ECA59"/><stop offset=".486" stop-color="#3FAEBD"/><stop offset=".721" stop-color="#59BE88"/><stop offset="1" stop-color="#ADD832"/></radialGradient><linearGradient id="paint5_linear_91_159" x1="188.634" y1="166.228" x2="160.07" y2="100.174" gradientUnits="userSpaceOnUse"><stop offset=".054" stop-color="#39AACF"/><stop offset="1" stop-color="#1ECA59"/></linearGradient></defs></svg>