<svg width="324" height="106" fill="none" xmlns="http://www.w3.org/2000/svg"><path d="M122 103h149c27.614 0 50-22.386 50-50v0c0-27.614-22.386-50-50-50H53C25.386 3 3 25.386 3 53v0c0 27.614 22.395 50 50.009 50H54" stroke="url(#paint0_linear_61_144)" stroke-width="6" stroke-linecap="round" stroke-linejoin="round"/><path d="M68.31 105.2V93.54h28.62c1.978 0 2.968-1.06 2.968-3.18V77.11H97.99c-.566 1.201-1.449 2.403-2.65 3.604-1.202 1.201-2.827 2.19-4.876 2.968-2.05.777-4.664 1.166-7.844 1.166-4.099 0-7.703-.919-10.812-2.756-3.039-1.908-5.406-4.523-7.102-7.844-1.696-3.321-2.544-7.137-2.544-11.448V31.424h13.356V61.74c0 3.957.954 6.925 2.862 8.904 1.979 1.979 4.77 2.968 8.374 2.968 4.099 0 7.278-1.343 9.54-4.028 2.261-2.756 3.392-6.572 3.392-11.448V31.424h13.356v61.904c0 3.604-1.06 6.466-3.18 8.586-2.12 2.191-4.947 3.286-8.48 3.286H68.31zm79.31-19.716c-5.229 0-9.928-1.06-14.098-3.18-4.169-2.12-7.455-5.194-9.858-9.222-2.402-4.028-3.604-8.869-3.604-14.522v-1.696c0-5.653 1.202-10.494 3.604-14.522 2.403-4.028 5.689-7.102 9.858-9.222 4.17-2.12 8.869-3.18 14.098-3.18 5.23 0 9.929 1.06 14.098 3.18 4.17 2.12 7.456 5.194 9.858 9.222 2.403 4.028 3.604 8.869 3.604 14.522v1.696c0 5.653-1.201 10.494-3.604 14.522-2.402 4.028-5.688 7.102-9.858 9.222-4.169 2.12-8.868 3.18-14.098 3.18zm0-11.872c4.099 0 7.491-1.307 10.176-3.922 2.686-2.685 4.028-6.501 4.028-11.448v-1.06c0-4.947-1.342-8.727-4.028-11.342-2.614-2.685-6.006-4.028-10.176-4.028-4.098 0-7.49 1.343-10.176 4.028-2.685 2.615-4.028 6.395-4.028 11.342v1.06c0 4.947 1.343 8.763 4.028 11.448 2.686 2.615 6.078 3.922 10.176 3.922zm54.622 11.236c-4.098 0-7.702-.919-10.812-2.756-3.038-1.908-5.406-4.523-7.102-7.844-1.696-3.321-2.544-7.137-2.544-11.448V31.424h13.356V61.74c0 3.957.954 6.925 2.862 8.904 1.979 1.979 4.77 2.968 8.374 2.968 4.099 0 7.279-1.343 9.54-4.028 2.262-2.756 3.392-6.572 3.392-11.448V31.424h13.356V84H219.52v-6.89h-1.908c-.848 1.767-2.438 3.498-4.77 5.194-2.332 1.696-5.865 2.544-10.6 2.544zM242.227 84V31.424h13.144v5.936h1.908c.777-2.12 2.049-3.675 3.816-4.664 1.837-.99 3.957-1.484 6.36-1.484h6.36v11.872h-6.572c-3.392 0-6.183.919-8.374 2.756-2.191 1.767-3.286 4.523-3.286 8.268V84h-13.356z" fill="url(#paint1_linear_61_144)"/><defs><linearGradient id="paint0_linear_61_144" x1="30" y1="67" x2="191.329" y2="-41.673" gradientUnits="userSpaceOnUse"><stop stop-color="#49D2FF" stop-opacity=".75"/><stop offset="1" stop-color="#5BFF93"/></linearGradient><linearGradient id="paint1_linear_61_144" x1="55" y1="47.249" x2="277" y2="47.249" gradientUnits="userSpaceOnUse"><stop stop-color="#4BFFD4"/><stop offset=".33" stop-color="#2CFF74"/><stop offset=".66" stop-color="#4DFF67"/><stop offset="1" stop-color="#91FF4A"/></linearGradient></defs></svg>